Coordinates
version=1
nRows=7
nColumns=40
inDegrees=yes

Units are S.I. units (second, meters, Newtons, ...)
Angles are in degrees.

endheader
time	pelvis_tilt	pelvis_list	pelvis_rotation	pelvis_tx	pelvis_ty	pelvis_tz	hip_flexion_r	hip_adduction_r	hip_rotation_r	knee_angle_r	knee_angle_r_beta	ankle_angle_r	subtalar_angle_r	mtp_angle_r	hip_flexion_l	hip_adduction_l	hip_rotation_l	knee_angle_l	knee_angle_l_beta	ankle_angle_l	subtalar_angle_l	mtp_angle_l	lumbar_extension	lumbar_bending	lumbar_rotation	arm_flex_r	arm_add_r	arm_rot_r	elbow_flex_r	pro_sup_r	wrist_flex_r	wrist_dev_r	arm_flex_l	arm_add_l	arm_rot_l	elbow_flex_l	pro_sup_l	wrist_flex_l	wrist_dev_l
     39.94692857	     -6.37379311	     -3.49561027	      2.12956785	      0.99219685	      0.91957683	      0.42570380	     31.05092293	     -3.79524309	    -14.66351778	     17.65480521	     17.65480521	      2.37937274	      0.13560939	      7.21441547	      4.52985695	     -4.56896059	     -7.72221871	     15.01036891	     15.01036891	     18.29037070	     -4.59202626	     -5.32330933	    -12.44605559	      5.43082685	      1.39549765	    -14.42509802	    -15.26889194	     -3.29946762	     31.41372982	     46.47693971	      0.00000000	      0.00000000	     10.86448189	    -15.19321061	     -9.21625557	    106.84744149	     47.89997405	      0.00000000	      0.00000000
     39.95885714	     -6.46719576	     -3.56337667	      2.11826809	      0.99381369	      0.91767526	      0.42783571	     30.40759642	     -3.39196192	    -15.39734741	     16.76112393	     16.76112393	      2.32096603	      1.02038379	      7.73488367	      4.09828732	     -4.81719582	     -7.67248529	     15.19500595	     15.19500595	     18.90747962	     -4.61735426	     -5.26265266	    -12.16026212	      5.44478496	      1.43087024	    -14.86589937	    -15.24096837	     -3.27618127	     31.81968903	     46.44656007	      0.00000000	      0.00000000	     11.03646193	    -15.30602535	     -9.34800600	    108.04555418	     47.95080349	      0.00000000	      0.00000000
     39.97078571	     -6.55870505	     -3.70328835	      2.10079228	      0.99540529	      0.91587350	      0.43014210	     29.89051094	     -2.93917098	    -15.95511351	     16.38131048	     16.38131048	      2.16875860	      1.50193356	      7.69477981	      3.79327638	     -5.16298776	     -7.53356062	     15.61918036	     15.61918036	     19.56945668	     -4.82510316	     -4.98679378	    -11.89242063	      5.53979684	      1.48611783	    -15.13417698	    -15.22513233	     -3.21684111	     32.24365298	     46.41443628	      0.00000000	      0.00000000	     11.14444941	    -15.34860979	     -9.48886468	    109.10203994	     48.00018903	      0.00000000	      0.00000000
     39.98271429	     -6.60198886	     -3.87190080	      2.05195640	      0.99704395	      0.91432154	      0.43262735	     29.54110212	     -2.48951519	    -16.22593020	     16.62367756	     16.62367756	      2.12207911	      1.44639282	      7.46038611	      3.41384269	     -5.54589571	     -7.38410441	     15.98211623	     15.98211623	     20.01721538	     -5.13425981	     -4.91438612	    -11.67106580	      5.68643035	      1.59439092	    -15.12662149	    -15.11089277	     -3.16712974	     32.37313903	     46.40331375	      0.00000000	      0.00000000	     11.31056946	    -15.45092599	     -9.61500221	    109.45803078	     48.02207499	      0.00000000	      0.00000000
     39.99464286	     -6.64459139	     -4.01500110	      2.07031890	      0.99855669	      0.91288975	      0.43514614	     29.08984100	     -2.04082268	    -16.26481059	     16.68364719	     16.68364719	      0.72343109	      0.75135605	      3.26778087	      3.50737038	     -5.94695886	     -7.00006236	     17.31855605	     17.31855605	     21.64491235	     -5.42657118	     -2.07502764	    -11.52985677	      5.76351116	      1.27759190	    -15.06212324	    -15.30268713	     -2.47492779	     33.51772069	     46.27562884	      0.00000000	      0.00000000	     10.82045626	    -15.46845512	    -10.34675464	    110.94495705	     48.18680842	      0.00000000	      0.00000000
     40.00657143	     -6.61521004	     -4.25839549	      2.05891505	      0.99995948	      0.91187605	      0.43785968	     28.84819938	     -1.58413944	    -16.21404627	     17.46178724	     17.46178724	      0.84971246	      0.25640060	      2.60906185	      3.53685685	     -6.48129677	     -6.62846114	     18.52815163	     18.52815163	     21.97142886	     -6.14932463	     -2.13379809	    -11.47658132	      5.93510199	      1.49698702	    -14.79326043	    -15.29787107	     -2.30860912	     33.44260101	     46.26594816	      0.00000000	      0.00000000	     11.03868881	    -15.29319065	    -10.38151517	    111.03391248	     48.20465223	      0.00000000	      0.00000000
     40.01850000	     -6.58160260	     -4.46604073	      2.01373054	      1.00127641	      0.91125110	      0.44063842	     28.68896921	     -1.16694545	    -15.99480355	     18.37938551	     18.37938551	      0.88963630	     -0.58865863	      1.70675948	      3.72094785	     -6.97227899	     -6.21451623	     20.01379365	     20.01379365	     22.15691985	     -7.18329519	     -1.98286277	    -11.43221262	      6.13254982	      1.74392139	    -14.19110425	    -15.17230195	     -2.10695771	     33.45074441	     46.25262245	      0.00000000	      0.00000000	     10.99018571	    -15.12415560	    -10.45020423	    111.02198843	     48.22319250	      0.00000000	      0.00000000
